<?xml version="1.0" encoding="UTF-8"?>
<svg id="Capa_2" xmlns="http://www.w3.org/2000/svg" xmlns:xlink="http://www.w3.org/1999/xlink" viewBox="0 0 397.02 77.6">
  <defs>
    <style>
      .cls-1 {
        fill: url(#linear-gradient-2);
      }

      .cls-2 {
        fill: url(#linear-gradient-3);
      }

      .cls-3 {
        fill: url(#linear-gradient);
      }
    </style>
    <linearGradient id="linear-gradient" x1="49.72" y1="45.44" x2="179.43" y2="45.44" gradientUnits="userSpaceOnUse">
      <stop offset="0" stop-color="#8c76b6"/>
      <stop offset=".49" stop-color="#d7107f"/>
      <stop offset="1" stop-color="#f78d1e"/>
    </linearGradient>
    <linearGradient id="linear-gradient-2" x1="367.42" y1="15.23" x2="397.02" y2="15.23" gradientUnits="userSpaceOnUse">
      <stop offset="0" stop-color="#63bc46"/>
      <stop offset="1" stop-color="#b89431"/>
    </linearGradient>
    <linearGradient id="linear-gradient-3" x1="34.44" y1="21.81" x2="513.81" y2="12.87" gradientUnits="userSpaceOnUse">
      <stop offset=".11" stop-color="#8d77b6"/>
      <stop offset=".53" stop-color="#d72b83"/>
      <stop offset=".95" stop-color="#f78e1e"/>
    </linearGradient>
  </defs>
  <g id="USOS_PRINCIPALES">
    <g>
      <path d="M46.01,15.17v15.16h-15.16v45.83h-15.69V30.34H0v-15.16h46.01Z"/>
      <path d="M215.2,76.17l-9.64-19.45h-6.17v19.45h-15.13V15.17h24.54c6.25,0,11.5,2,15.73,6,4.24,4,6.35,9.07,6.35,15.21,0,3.68-.93,7.06-2.8,10.12-1.87,3.07-4.41,5.51-7.63,7.32l11.57,22.34h-16.83ZM199.39,29.64v13.76h9.23c1.93.06,3.51-.55,4.73-1.84,1.23-1.28,1.84-2.95,1.84-5s-.61-3.71-1.84-5c-1.23-1.28-2.81-1.93-4.73-1.93h-9.23Z"/>
      <path d="M362.82,15.17v61.07h-15.32v-32.76l-14.62,24.63h-1.58l-14.25-24.63v32.76h-15.13V15.17h15.13l15.04,26.21,15.41-26.21h15.32Z"/>
      <path class="cls-3" d="M169.95,22.61c-12.59-12.5-33-12.43-45.49.16l-31.38,33.97c-2.98,2.96-6.94,4.59-11.14,4.61h0c-.56,0-1.12-.03-1.67-.08l29.58-33.17c.06-.07.06-.18,0-.25l-5.28-5.24c-12.59-12.5-32.99-12.43-45.49.16-12.5,12.59-12.43,33,.16,45.49,6.07,6.03,14.11,9.34,22.66,9.34h.12c8.59-.03,16.66-3.41,22.71-9.5l31.38-33.97c6.19-6.13,16.22-6.14,22.42.01,7.13,7.08,6.14,19.3-3.01,24.96-2.46,1.52-5.32,2.25-8.2,2.25-4.23,0-8.21-1.64-11.21-4.62l-7.86-7.3c-.07-.07-.19-.06-.26,0l-10.81,11.64c-.07.07-.06.19,0,.26l7.57,7.03c6.06,5.96,14.06,9.24,22.56,9.24h.12c8.59-.03,16.66-3.41,22.71-9.5,12.5-12.59,12.43-32.99-.16-45.49ZM70,32.42c4.44-4.47,10.78-5.92,16.45-4.34.14.04.19.21.09.32l-20.14,22.29c-2.51-6.07-1.32-13.33,3.59-18.27Z"/>
      <path d="M270.3,60.89h-.06c-.55,0-1.1-.03-1.64-.09l29.33-32.85-5.33-5.29c-12.42-12.33-32.55-12.26-44.88.16-12.33,12.42-12.26,32.55.16,44.88,5.99,5.95,13.92,9.22,22.36,9.22h.12c8.48-.03,16.44-3.36,22.41-9.38l-11.38-11.3c-2.96,2.98-6.89,4.62-11.09,4.64ZM258.68,32.53c4.54-4.57,11.07-6,16.85-4.27l-20.46,22.63c-2.52-6.1-1.32-13.39,3.62-18.36Z"/>
      <g>
        <path class="cls-1" d="M386.94,0h-9.81l-9.71,30.47h8.43l1.31-4.4h10.37l1.46,4.4h8.02l-10.08-30.47ZM379.18,19.37l3.05-10.36,3.09,10.36h-6.14Z"/>
        <path class="cls-2" d="M386.94,0h-9.81l-9.71,30.47h8.43l1.31-4.4h10.37l1.46,4.4h8.02l-10.08-30.47ZM379.18,19.37l3.05-10.36,3.09,10.36h-6.14Z"/>
      </g>
    </g>
  </g>
</svg>